<svg width="19" height="22" viewBox="0 0 19 22" fill="none" xmlns="http://www.w3.org/2000/svg">
<path d="M9.48438 0.812256C9.875 0.812256 10.1914 0.93335 10.4336 1.17554C10.6758 1.41772 10.7969 1.73804 10.7969 2.13647V15.5427L10.6562 19.2927L9.87109 18.8708L13.457 14.8513L15.9648 12.3669C16.082 12.2498 16.2188 12.156 16.375 12.0857C16.5312 12.0154 16.707 11.9802 16.9023 11.9802C17.2539 11.9802 17.5508 12.1013 17.793 12.3435C18.0352 12.5779 18.1562 12.8787 18.1562 13.2458C18.1562 13.5974 18.0156 13.9138 17.7344 14.1951L10.457 21.4841C10.332 21.6169 10.1836 21.7185 10.0117 21.7888C9.83984 21.8591 9.66406 21.8943 9.48438 21.8943C9.30469 21.8943 9.12891 21.8591 8.95703 21.7888C8.79297 21.7185 8.64453 21.6169 8.51172 21.4841L1.23438 14.1951C0.960938 13.9138 0.824219 13.5974 0.824219 13.2458C0.824219 12.8787 0.941406 12.5779 1.17578 12.3435C1.41797 12.1013 1.71875 11.9802 2.07812 11.9802C2.26562 11.9802 2.4375 12.0154 2.59375 12.0857C2.75 12.156 2.88672 12.2498 3.00391 12.3669L5.51172 14.8513L9.08594 18.8708L8.32422 19.2927L8.17188 15.5427V2.13647C8.17188 1.73804 8.29297 1.41772 8.53516 1.17554C8.77734 0.93335 9.09375 0.812256 9.48438 0.812256Z" fill="black"/>
</svg>
