<svg width="16" height="14" viewBox="0 0 16 14" fill="none" xmlns="http://www.w3.org/2000/svg">
<path d="M0.118164 6.99707C0.118164 6.80957 0.194336 6.64551 0.34668 6.50488L5.86621 0.976562C5.9541 0.894531 6.03906 0.835938 6.12109 0.800781C6.20312 0.765625 6.29102 0.748047 6.38477 0.748047C6.56641 0.748047 6.72168 0.80957 6.85059 0.932617C6.97949 1.0498 7.04395 1.20215 7.04395 1.38965C7.04395 1.47754 7.02637 1.56543 6.99121 1.65332C6.96191 1.73535 6.91797 1.80566 6.85938 1.86426L4.75 4.00879L1.63867 6.86523L1.47168 6.47852L4.06445 6.33789H14.8926C15.0801 6.33789 15.2354 6.39941 15.3584 6.52246C15.4873 6.64551 15.5518 6.80371 15.5518 6.99707C15.5518 7.19629 15.4873 7.35742 15.3584 7.48047C15.2354 7.60352 15.0801 7.66504 14.8926 7.66504H4.06445L1.47168 7.51562L1.63867 7.14648L4.75 9.99414L6.85938 12.1387C6.91797 12.1973 6.96191 12.2705 6.99121 12.3584C7.02637 12.4404 7.04395 12.5254 7.04395 12.6133C7.04395 12.8008 6.97949 12.9531 6.85059 13.0703C6.72168 13.1934 6.56641 13.2549 6.38477 13.2549C6.20312 13.2549 6.04199 13.1875 5.90137 13.0527L0.34668 7.49805C0.194336 7.35742 0.118164 7.19043 0.118164 6.99707Z" fill="black"/>
</svg>
